# xmcd CD database file
#
# Track frame offsets:
#	150
#	13378
#	26526
#	38895
#	50655
#	63981
#	76414
#	88275
#	97722
#	108254
#	119035
#	131675
#	143929
#	156889
#	168675
#	178659
#	189571
#	203325
#	214338
#	224418
#	236703
#	245013
#	255624
#	266627
#	278216
#
# Disc length: 3854 seconds
#
# Revision: 0
# Processed by: cddbd v1.5.1PL2 Copyright (c) Steve Scherf et al.
# Submitted via: CDex 1.51
#
DISCID=7c0f0c19
DTITLE=Various Artist - Down Home Blue Classics 1943-1953 - CD3 - New York and The East Coast States 1943 - 1953
DYEAR=2004
DGENRE=Blues
TTITLE0=Skookle-Dum-Do and Sheffield - Broome Street Blues
TTITLE1=Gabriel Brown - Black Jack Blues
TTITLE2=The Blues Boys - Worried Man Blues
TTITLE3=Ralph Wills - Income Tax Blues
TTITLE4=Dennis McMillan - Poor Little Angel
TTITLE5=Blind McTell - Broke Down Engine Blues
TTITLE6=Pinetop Slim - Applejack Boogie
TTITLE7=Dan Pickett - Number Writer
TTITLE8=Big Boy Ellis - She's Gone
TTITLE9=Leroy Dallas - Your Sweet Man Blues
TTITLE10=Sticks McGhee - Blues Mixture
TTITLE11=Little David - Shackles Round My Body
TTITLE12=Curley Weaver - Ticket Agent
TTITLE13=Marylyn Scott - I Got What My Daddy Likes
TTITLE14=John Lee - Blind's Blues
TTITLE15=John Tinsley and Fred Holland - Keep Your Hands Off 'Er
TTITLE16=Hank Kilroy - Awful Shame
TTITLE17=Doug Quattlebaum - Lizzie Lou
TTITLE18=Duke Bayou - Rub A Little Boogie
TTITLE19=Brownie McGhee - So Much Trouble
TTITLE20=Lazy Slim Jim - Wine Head Baby
TTITLE21=Sonny Terry - Baby, Let's Have Some Fun
TTITLE22=Willie Baker - Rumors About My Baby
TTITLE23=Square Walton - Gimme Your Bankroll
TTITLE24=Champion Jack Dupree - Shake Baby Shake
EXTD=YEAR: 2004
EXTT0=
EXTT1=
EXTT2=
EXTT3=
EXTT4=
EXTT5=
EXTT6=
EXTT7=
EXTT8=
EXTT9=
EXTT10=
EXTT11=
EXTT12=
EXTT13=
EXTT14=
EXTT15=
EXTT16=
EXTT17=
EXTT18=
EXTT19=
EXTT20=
EXTT21=
EXTT22=
EXTT23=
EXTT24=
PLAYORDER=
